<?xml version="1.0" encoding="UTF-8"?>
<svg version="1.1" xmlns="http://www.w3.org/2000/svg" width="512" height="512" viewBox="0 0 512 512" fill="none"
    stroke="#0A66C2" stroke-width="15" stroke-linecap="round" stroke-linejoin="round"
    >
    <path
        d="M0 0 C0.68513672 0.32838867 1.37027344 0.65677734 2.07617188 0.99511719 C17.39783706 8.40269912 30.73581494 18.20903109 43 30 C43.47920898 30.45342773 43.95841797 30.90685547 44.45214844 31.37402344 C51.51527203 38.07884019 57.56481517 44.87919442 63 53 C66.1482437 51.54420622 68.78198879 49.75341525 71.5625 47.6875 C84.49779197 38.58348219 98.52890796 35.20331725 114.2265625 37.46484375 C130.13173773 40.67245069 142.83316228 48.9863351 152 62.375 C159.40069466 75.22217165 161.10367158 89.39577795 158.234375 103.859375 C156.85988121 108.5937425 155.21072313 112.88739181 152.6875 117.125 C151.8521875 118.548125 151.8521875 118.548125 151 120 C152.14080816 123.42242447 152.882589 123.88074799 155.75 125.875 C159.17465573 128.3601484 162.104352 130.89247532 165 134 C165.66773438 134.65097656 166.33546875 135.30195313 167.0234375 135.97265625 C171.7351842 140.78892976 175.26377356 145.72152663 178.3125 151.6875 C178.78200073 152.58432495 178.78200073 152.58432495 179.26098633 153.49926758 C185.62490117 166.62961869 186.62769458 179.51207835 186.46655273 193.85620117 C186.43714841 196.72176339 186.44607931 199.58551793 186.45898438 202.45117188 C186.4527579 204.28386313 186.44437556 206.11654863 186.43359375 207.94921875 C186.43652939 208.80021652 186.43946503 209.65121429 186.44248962 210.52799988 C186.38640251 214.03076123 186.33207811 216.37947933 184.66040039 219.50317383 C181.91111667 221.98161208 179.37151057 222.11789312 175.84094238 222.03036499 C174.99447144 222.01269577 174.14800049 221.99502655 173.27587891 221.9768219 C172.3501709 221.95272751 171.42446289 221.92863312 170.47070312 221.90380859 C168.44407084 221.86106343 166.41741744 221.81931151 164.39074707 221.77841187 C163.31438492 221.75589733 162.23802277 221.7333828 161.12904358 221.710186 C154.22873065 221.58291292 147.3273201 221.54032614 140.42609406 221.48885155 C134.36337856 221.43893071 128.3050162 221.35468792 122.24414062 221.19433594 C116.3780046 221.04082909 110.51746545 220.9810748 104.6493988 220.9840889 C102.41954877 220.96876174 100.18965689 220.92002189 97.96131897 220.83649826 C87.73763482 220.36126298 87.73763482 220.36126298 78 223 C73.1052285 227.58177423 70.59795219 233.58801707 68.0693512 239.68086624 C61.83204185 253.2079046 48.47366139 264.72312974 38 275 C44.00630704 282.33872871 50.80846613 288.87379424 57.54760742 295.52709961 C62.95993858 300.87662161 68.29806523 306.22005796 73.2409668 312.01391602 C76.94386961 316.19477852 80.97039671 320.07211522 84.9375 324 C86.24944336 325.30517578 86.24944336 325.30517578 87.58789062 326.63671875 C89.72297449 328.76013549 91.86037205 330.88116378 94 333 C95.80984375 332.27103516 95.80984375 332.27103516 97.65625 331.52734375 C101.0172696 330.27213903 103.87985948 329.56795202 107.5 329.5625 C108.78390625 329.53349609 108.78390625 329.53349609 110.09375 329.50390625 C117.66418456 330.79617129 122.89459967 335.31519086 128.09765625 340.671875 C128.7356163 341.31312317 129.37357635 341.95437134 130.03086853 342.61505127 C132.0509975 344.65080493 134.05654202 346.70029236 136.0625 348.75 C137.41123464 350.11024289 138.76083729 351.46962569 140.11132812 352.828125 C141.42004544 354.15027538 142.72801302 355.47316838 144.03515625 356.796875 C144.92763817 357.70043732 144.92763817 357.70043732 145.83815002 358.62225342 C161.93835008 375.08229994 161.93835008 375.08229994 162.5 385.5 C161.96900114 394.04023162 157.99506732 399.43739913 152.1875 405.375 C151.69024414 405.88716064 151.19298828 406.39932129 150.68066406 406.92700195 C145.61377191 411.85569127 140.24213474 414.42786291 133.0625 414.4375 C131.62583984 414.46650391 131.62583984 414.46650391 130.16015625 414.49609375 C122.22720053 413.25074718 116.91666748 408.50065657 111.46484375 402.92578125 C110.78249161 402.24251266 110.10013947 401.55924408 109.39710999 400.85527039 C107.96301455 399.41516438 106.53375085 397.97023217 105.10913086 396.52075195 C102.9506156 394.32583678 100.77663862 392.14724044 98.59960938 389.97070312 C97.19957671 388.56083274 95.80045794 387.15005413 94.40234375 385.73828125 C93.76360825 385.0973201 93.12487274 384.45635895 92.46678162 383.79597473 C85.10175173 376.2779683 78.55754409 369.52684518 77.75 358.625 C78 355 78 355 78.76953125 352.91015625 C79.66053801 350.41270379 80.06940689 348.66146734 80 346 C78.4923566 343.64423558 78.4923566 343.64423558 76.25390625 341.43359375 C75.42656982 340.560979 74.5992334 339.68836426 73.74682617 338.78930664 C72.84037354 337.86883545 71.9339209 336.94836426 71 336 C70.08001221 335.06470459 69.16002441 334.12940918 68.2121582 333.16577148 C65.2867401 330.21489566 62.33324939 327.29290963 59.375 324.375 C53.63772512 318.71540583 47.94761563 313.08015338 42.703125 306.95214844 C39.38141245 303.14474971 35.84995483 299.54328143 32.3125 295.9375 C31.56677734 295.15439453 30.82105469 294.37128906 30.05273438 293.56445312 C28.96895508 292.46327148 28.96895508 292.46327148 27.86328125 291.33984375 C27.21657471 290.67331787 26.56986816 290.00679199 25.90356445 289.32006836 C24.1053619 287.77273702 24.1053619 287.77273702 21.96875 288.17749023 C18.71582348 289.53650678 15.72298024 291.34659739 12.6875 293.125 C-26.51050248 315.52577059 -71.8102719 322.45310394 -115.85888672 311.10083008 C-150.63900966 301.54256556 -183.28283553 281.11708718 -205 252 C-205.40025391 251.47470703 -205.80050781 250.94941406 -206.21289062 250.40820312 C-211.13082936 243.93405028 -215.37352283 237.42529355 -219.16577148 230.24121094 C-219.53536736 229.54446259 -219.90496323 228.84771423 -220.28575897 228.12985229 C-221.19208416 226.42073749 -222.09625785 224.71048207 -223 223 C-224.20412033 222.99413376 -225.40824066 222.98826752 -226.64884949 222.98222351 C-237.99357155 222.92502394 -249.33810142 222.85227665 -260.68262768 222.76428509 C-266.5150483 222.71954737 -272.34739851 222.6802986 -278.17993164 222.65356445 C-283.80808669 222.62756564 -289.43597129 222.58718714 -295.06395912 222.53681374 C-297.21172028 222.52012192 -299.35952823 222.50862209 -301.5073452 222.50238609 C-304.5145443 222.49277036 -307.52104788 222.46474073 -310.52807617 222.43237305 C-311.86164406 222.43452568 -311.86164406 222.43452568 -313.22215271 222.4367218 C-317.95031323 222.36469381 -321.17540481 222.10154741 -325 219 C-326.68047998 215.63904005 -326.20656411 211.84276756 -326.23828125 208.14453125 C-326.246353 207.25070236 -326.25442474 206.35687347 -326.26274109 205.43595886 C-326.27659886 203.53357893 -326.28731341 201.63117396 -326.29516602 199.72875977 C-326.30658411 197.80778579 -326.32687038 195.88684091 -326.35668945 193.96606445 C-326.58983769 178.94428447 -325.51991345 165.45957648 -318.4375 151.875 C-317.93041504 150.88971313 -317.93041504 150.88971313 -317.41308594 149.88452148 C-311.01928226 138.01584421 -302.08269078 129.48516812 -291 122 C-292.86831238 117.27273518 -294.87167612 112.60713923 -296.87890625 107.9375 C-301.1393511 96.77424381 -300.33454971 81.99992322 -296.32421875 70.92578125 C-290.09276085 57.15775186 -279.95213446 46.46749613 -265.83984375 40.7109375 C-251.21530933 35.6729938 -235.77348628 35.11476088 -221.43359375 41.6171875 C-216.07776512 44.45656878 -211.01380653 47.60523516 -206 51 C-205.66935547 50.21109375 -205.66935547 50.21109375 -205.33203125 49.40625 C-188.7060931 19.37229721 -150.08957452 -1.05540384 -118.5625 -10.3125 C-79.22502971 -21.16198756 -36.72293651 -17.99679163 0 0 Z M-180 47 C-180.556875 47.51175781 -181.11375 48.02351563 -181.6875 48.55078125 C-206.96591873 72.35122792 -221.16414378 109.64895942 -222.203125 143.98828125 C-222.78231314 183.14213283 -210.39553375 221.63091068 -182.79296875 250.140625 C-181.87128906 251.08421875 -180.94960937 252.0278125 -180 253 C-179.07775277 253.99323965 -178.15719392 254.98804952 -177.23828125 255.984375 C-151.22808075 283.69538054 -113.48010999 297.37835996 -76.12890625 299.1875 C-35.95903971 299.86762472 1.98260164 284.51936669 30.96484375 256.95703125 C31.97815917 255.97299568 32.98981272 254.98724658 34 254 C34.85621948 253.17665161 34.85621948 253.17665161 35.72973633 252.33666992 C61.83875821 226.85583504 75.64188153 190.05804525 77 154 C77.42175641 113.04444022 62.26512861 75.29713798 34.0546875 45.65185547 C5.85690439 16.89296177 -32.40945782 1.4338472 -72.5 0.75 C-113.72785539 1.453247 -151.22968412 17.47257054 -180 47 Z M-275.3125 69.6875 C-280.38182247 76.97376851 -283.2817997 86.13682404 -282 95 C-279.94660319 105.09323507 -275.10277512 113.54924699 -267 120 C-258.92697593 125.06070166 -250.54962689 127.57297761 -241 127 C-240.01 126.67 -239.02 126.34 -238 126 C-237.16930077 123.91991289 -237.16930077 123.91991289 -236.6875 121.25 C-233.15386896 105.87046593 -228.74722792 91.27901724 -222 77 C-221.01835256 74.83445616 -220.03889097 72.66791893 -219.0625 70.5 C-218.37621597 68.99944328 -217.68924944 67.49919694 -217 66 C-235.81105785 51.19727971 -258.97308814 50.03935724 -275.3125 69.6875 Z M75.125 67.90625 C73.71924287 69.95328119 73.71924287 69.95328119 74.578125 72.21875 C75.04734375 73.1365625 75.5165625 74.054375 76 75 C76.58588997 76.29860789 77.16321594 77.60109604 77.734375 78.90625 C78.05841309 79.63980713 78.38245117 80.37336426 78.71630859 81.12915039 C84.8889397 95.28654781 89.15061178 109.82811603 92 125 C101.90119701 127.85288727 112.072976 127.69805965 121.5859375 123.421875 C131.77054449 117.42317444 138.48751644 108.84131725 141.4921875 97.49609375 C143.37405648 88.24598394 141.33925033 79.52878409 136.45703125 71.4453125 C130.19268167 62.93038423 122.39398071 57.31555515 112 55 C96.94924051 53.42248724 85.71239177 57.1424017 75.125 67.90625 Z M-292.625 146.0625 C-308.63085978 162.80491262 -309 181.00552428 -309 204 C-283.26 204 -257.52 204 -231 204 C-232.43204918 196.8397541 -233.93646237 189.72240363 -235.58789062 182.61328125 C-237.63827931 173.57900159 -238.22542746 164.73910299 -238.5625 155.5 C-238.60568359 154.39140625 -238.64886719 153.2828125 -238.69335938 152.140625 C-238.79862214 149.42718494 -238.90075846 146.71366583 -239 144 C-239.93199219 143.97421875 -240.86398438 143.9484375 -241.82421875 143.921875 C-253.98905383 143.38066899 -264.1465945 140.62769174 -275 135 C-281.67916627 135 -287.92401971 141.70429953 -292.625 146.0625 Z M130.5 137.3125 C118.393033 143.41801918 107.29358876 143.35154446 94 143 C93.96261719 144.27230469 93.92523438 145.54460937 93.88671875 146.85546875 C93.5615286 156.16269664 93.01251273 165.39380913 91.75 174.625 C91.65291748 175.38449951 91.55583496 176.14399902 91.45581055 176.92651367 C90.09385276 186.21450907 87.42284193 194.79320066 85 204 C112.72 204 140.44 204 169 204 C169 179.8548159 168.60592184 163.55700548 152.23828125 146.2265625 C142.75311288 136.08066177 142.75311288 136.08066177 130.5 137.3125 Z M103.9296875 348.36328125 C103.25164062 349.00652344 102.57359375 349.64976562 101.875 350.3125 C100.85019531 351.26576172 100.85019531 351.26576172 99.8046875 352.23828125 C96.90249734 354.8113162 96.90249734 354.8113162 95.55859375 358.29296875 C96.1977383 362.21267825 98.18494863 363.63633849 101.0625 366.3125 C104.32960016 369.38240893 107.43007331 372.43320578 110.359375 375.828125 C114.13483428 380.20301168 118.11760371 384.33703172 122.1875 388.4375 C122.88552734 389.15615234 123.58355469 389.87480469 124.30273438 390.61523438 C124.98013672 391.29779297 125.65753906 391.98035156 126.35546875 392.68359375 C126.96028076 393.29775146 127.56509277 393.91190918 128.18823242 394.54467773 C130.17450337 396.14017175 131.47601738 396.72456217 134 397 C136.16481797 395.66146227 136.16481797 395.66146227 138.125 393.6875 C138.80820312 393.05199219 139.49140625 392.41648437 140.1953125 391.76171875 C143.06699904 389.19758388 143.06699904 389.19758388 144.50390625 385.76953125 C143.73133306 381.52337318 141.02890075 379.54035767 137.9375 376.6875 C136.7247487 375.52532729 135.51379363 374.36127712 134.3046875 373.1953125 C133.72428711 372.64004883 133.14388672 372.08478516 132.54589844 371.51269531 C130.77467611 369.77951567 129.15107904 367.96385627 127.5625 366.0625 C124.149093 362.0629524 120.49681475 358.31079978 116.8125 354.5625 C116.20543213 353.9341626 115.59836426 353.3058252 114.97290039 352.65844727 C114.39016357 352.07119873 113.80742676 351.4839502 113.20703125 350.87890625 C112.6860083 350.3485376 112.16498535 349.81816895 111.62817383 349.27172852 C108.84968026 347.10151215 106.94204471 346.37967244 103.9296875 348.36328125 Z "
        fill="#0A66C2" transform="translate(326,57)" />
    <path
        d="M0 0 C8.73955533 7.64875368 15.01674114 16.89784682 19.0625 27.75 C19.38089844 28.52859375 19.69929687 29.3071875 20.02734375 30.109375 C25.36329064 45.55165449 23.12489145 64.65512848 16.125 79.0625 C13.86697677 83.34767625 11.52658662 87.58000726 9.0625 91.75 C9.89652344 92.306875 10.73054687 92.86375 11.58984375 93.4375 C34.09869905 108.62015415 48.18659169 127.96398872 54.6328125 154.45922852 C55.93222665 161.38673019 56.2447775 168.16859163 56.30078125 175.19921875 C56.31288887 176.66268486 56.31288887 176.66268486 56.32524109 178.15571594 C56.33899526 180.20543686 56.34975566 182.25517984 56.35766602 184.30493164 C56.3692521 186.39875002 56.38980668 188.49253738 56.41918945 190.58618164 C56.46175546 193.62406309 56.47801189 196.66107664 56.48828125 199.69921875 C56.50578934 200.63263596 56.52329742 201.56605316 56.54133606 202.52775574 C56.52719301 206.75648029 56.43798796 209.12408704 54.22338867 212.81567383 C50.41510772 216.22466829 46.58709496 215.89639716 41.75003052 215.89044189 C40.6244169 215.89489858 40.6244169 215.89489858 39.47606361 215.8994453 C36.95424604 215.90813709 34.43247591 215.90964094 31.91064453 215.91113281 C30.10552875 215.9157606 28.30041395 215.92078521 26.49530029 215.92617798 C21.58620825 215.9393067 16.67712988 215.94574772 11.76802301 215.95018864 C8.70237067 215.95311826 5.63672208 215.95722282 2.57107162 215.96169281 C-7.01681656 215.97536822 -16.60469619 215.98503499 -26.19259346 215.9888947 C-37.26778642 215.99337743 -48.34285608 216.01093512 -59.41801155 216.0398953 C-67.97434521 216.06149409 -76.53064414 216.071598 -85.08700478 216.07293582 C-90.19954993 216.07398503 -95.31197919 216.07991758 -100.4244957 216.09775543 C-105.23271762 216.11420522 -110.04073614 216.11640669 -114.84897614 216.10761642 C-116.61424681 216.10684442 -118.37952829 216.11121019 -120.14477158 216.12107468 C-122.55377908 216.13374779 -124.9620611 216.12794303 -127.37106323 216.11749268 C-128.42004911 216.12957728 -128.42004911 216.12957728 -129.49022663 216.14190602 C-133.80833135 216.09806404 -136.51046367 215.4006281 -139.9375 212.75 C-141.99060065 209.67034903 -142.19061785 209.01313336 -142.2121582 205.5324707 C-142.22169022 204.68340652 -142.23122223 203.83434235 -142.24104309 202.95954895 C-142.24013168 202.04090561 -142.23922028 201.12226227 -142.23828125 200.17578125 C-142.24256638 199.21915085 -142.2468515 198.26252045 -142.25126648 197.27690125 C-142.25701697 195.24344675 -142.25750477 193.20997168 -142.25317383 191.17651367 C-142.25005784 188.11925114 -142.2733086 185.06299903 -142.29882812 182.00585938 C-142.38398512 155.63153998 -136.55465124 131.96928535 -118.9375 111.75 C-118.17824219 110.78578125 -117.41898438 109.8215625 -116.63671875 108.828125 C-113.78393107 105.39967485 -110.46984069 102.76081581 -106.9375 100.0625 C-106.33421875 99.59005859 -105.7309375 99.11761719 -105.109375 98.63085938 C-101.83607262 96.09405003 -98.54923987 93.79528451 -94.9375 91.75 C-95.24042969 91.21632813 -95.54335937 90.68265625 -95.85546875 90.1328125 C-97.23389493 87.68133455 -98.58792712 85.21747522 -99.9375 82.75 C-100.37964844 81.95722656 -100.82179687 81.16445312 -101.27734375 80.34765625 C-109.2009765 65.48783435 -110.60288478 47.3444205 -106.3125 31.0625 C-100.06877554 12.7881845 -87.9324056 -0.93851909 -70.6875 -9.625 C-46.60773643 -20.03162051 -20.54941142 -15.74119259 0 0 Z M-79.828125 19.0625 C-88.19201188 29.71871143 -92.13101997 42.26695411 -90.9375 55.75 C-88.53006072 69.19780534 -82.13145003 80.46875877 -71.2265625 88.828125 C-60.231548 96.15813467 -48.14999886 99.46106511 -34.9765625 97.25390625 C-21.80776769 94.2579208 -11.25361895 88.14581665 -3.015625 77.1953125 C4.39108779 65.42523921 6.95015629 52.37783934 3.9375 38.75 C0.47346385 26.39440561 -6.36118024 16.66141977 -17.19140625 9.640625 C-38.56224422 -2.34487393 -62.65619817 1.03806616 -79.828125 19.0625 Z M-101.21484375 119.02734375 C-102.11332031 119.92582031 -103.01179688 120.82429688 -103.9375 121.75 C-104.61941406 122.43191406 -105.30132812 123.11382812 -106.00390625 123.81640625 C-117.59239213 136.23449291 -124.14966593 153.21511523 -124.03515625 170.11328125 C-124.0337413 170.90526413 -124.03232635 171.69724701 -124.03086853 172.51322937 C-124.02529457 175.02969219 -124.01274693 177.54606431 -124 180.0625 C-123.99498163 181.77408725 -123.99041931 183.48567591 -123.98632812 185.19726562 C-123.97618681 189.38157302 -123.95660646 193.56568562 -123.9375 197.75 C-115.6875 197.75 -107.4375 197.75 -98.9375 197.75 C-98.68887468 192.71003603 -98.68887468 192.71003603 -98.45947266 187.66918945 C-98.17566189 182.59077455 -97.68149047 178.49399047 -93.9375 174.75 C-88.36128049 174.21036585 -88.36128049 174.21036585 -85.9375 174.75 C-81.9375 178.75 -81.9375 178.75 -80.9375 197.75 C-55.8575 197.75 -30.7775 197.75 -4.9375 197.75 C-4.6075 191.48 -4.2775 185.21 -3.9375 178.75 C0.0625 174.75 0.0625 174.75 2.09765625 174.25390625 C7.53723525 174.41111952 7.53723525 174.41111952 10 176 C12.56328623 180.22188319 12.3656954 185.19389826 12.625 190 C12.8415625 193.83625 12.8415625 193.83625 13.0625 197.75 C21.3125 197.75 29.5625 197.75 38.0625 197.75 C38.15538611 192.89670073 38.2346853 188.04660244 38.28222656 183.19311523 C38.30208568 181.54945307 38.32918256 179.90585904 38.36425781 178.26245117 C38.8048059 157.05783513 33.64408003 138.83062096 19.0625 122.75 C18.36253906 121.96882813 17.66257812 121.18765625 16.94140625 120.3828125 C11.6122165 114.740141 5.79851381 110.57945037 -0.9375 106.75 C-1.60136719 106.33621094 -2.26523437 105.92242187 -2.94921875 105.49609375 C-6.45083171 104.18212896 -9.13455244 105.4023062 -12.4453125 106.8359375 C-13.30898438 107.26132813 -14.17265625 107.68671875 -15.0625 108.125 C-30.7090414 115.2558544 -48.48638526 116.48400182 -64.94140625 110.97265625 C-68.73351244 109.4251605 -72.37261604 107.6988092 -75.94921875 105.703125 C-84.54065786 101.58463552 -95.45417201 113.43660333 -101.21484375 119.02734375 Z "
        fill="#0A66C2" transform="translate(298.9375,91.25)" />
</svg>