<?xml version="1.0" encoding="UTF-8"?>
<svg version="1.1" xmlns="http://www.w3.org/2000/svg" width="512" height="512">
<path d="M0 0 C1.01790619 0.00215515 2.03581238 0.0043103 3.08456421 0.00653076 C17.69363523 0.05620146 32.02575853 0.30709809 46.375 3.3125 C47.34985352 3.51117676 48.32470703 3.70985352 49.32910156 3.91455078 C97.7109774 14.03517194 141.69928269 35.9516877 177.375 70.3125 C178.3640332 71.26068604 178.3640332 71.26068604 179.37304688 72.22802734 C188.86130305 81.37247479 197.6012044 90.66984009 205.375 101.3125 C206.23306152 102.46355017 207.09113451 103.61459177 207.94921875 104.765625 C213.98736829 112.95680614 219.34595521 121.47054105 224.375 130.3125 C224.73948242 130.94430176 225.10396484 131.57610352 225.47949219 132.22705078 C247.08534998 169.97532572 256.85198095 212.74189997 256.6875 255.9375 C256.68534485 256.95540619 256.6831897 257.97331238 256.68096924 259.02206421 C256.63129854 273.63113523 256.38040191 287.96325853 253.375 302.3125 C253.07698486 303.77478027 253.07698486 303.77478027 252.77294922 305.26660156 C242.65232806 353.6484774 220.7358123 397.63678269 186.375 433.3125 C185.74287598 433.97185547 185.11075195 434.63121094 184.45947266 435.31054688 C175.31502521 444.79880305 166.01765991 453.5387044 155.375 461.3125 C154.22394983 462.17056152 153.07290823 463.02863451 151.921875 463.88671875 C143.73224019 469.92427396 135.22961724 475.30707302 126.375 480.3125 C125.66778809 480.7146875 124.96057617 481.116875 124.23193359 481.53125 C101.09654164 494.5566741 75.92537591 503.30551461 49.9375 508.625 C49.21860596 508.77235596 48.49971191 508.91971191 47.7590332 509.0715332 C33.08339502 511.86090125 18.55831162 512.66142619 3.64770508 512.62817383 C0.70811513 512.6250221 -2.2304558 512.64854926 -5.16992188 512.67382812 C-18.54306192 512.71848737 -31.43916711 511.51301542 -44.625 509.3125 C-46.33055054 509.03031616 -46.33055054 509.03031616 -48.07055664 508.74243164 C-91.33802759 500.97044532 -132.38793216 480.98345309 -165.625 452.3125 C-166.37007813 451.67828125 -167.11515625 451.0440625 -167.8828125 450.390625 C-181.38779833 438.57948485 -194.05918743 425.82889772 -204.625 411.3125 C-205.48149066 410.16255169 -206.33826433 409.01281411 -207.1953125 407.86328125 C-213.23534209 399.67315742 -218.61867614 391.16870382 -223.625 382.3125 C-224.0271875 381.60528809 -224.429375 380.89807617 -224.84375 380.16943359 C-237.8691741 357.03404164 -246.61801461 331.86287591 -251.9375 305.875 C-252.08485596 305.15610596 -252.23221191 304.43721191 -252.3840332 303.6965332 C-255.35789088 288.05024391 -255.99800362 272.57681954 -255.9375 256.6875 C-255.93534485 255.66959381 -255.9331897 254.65168762 -255.93096924 253.60293579 C-255.88129854 238.99386477 -255.63040191 224.66174147 -252.625 210.3125 C-252.42632324 209.33764648 -252.22764648 208.36279297 -252.02294922 207.35839844 C-241.90232806 158.9765226 -219.9858123 114.98821731 -185.625 79.3125 C-184.99287598 78.65314453 -184.36075195 77.99378906 -183.70947266 77.31445312 C-174.56502521 67.82619695 -165.26765991 59.0862956 -154.625 51.3125 C-153.47394983 50.45443848 -152.32290823 49.59636549 -151.171875 48.73828125 C-142.98224019 42.70072604 -134.47961724 37.31792698 -125.625 32.3125 C-124.91778809 31.9103125 -124.21057617 31.508125 -123.48193359 31.09375 C-100.34654164 18.0683259 -75.17537591 9.31948539 -49.1875 4 C-48.46860596 3.85264404 -47.74971191 3.70528809 -47.0090332 3.5534668 C-31.36274391 0.57960912 -15.88931954 -0.06050362 0 0 Z " fill="#0A66C2" transform="translate(255.625,-0.3125)"/>
<path d="M0 0 C7.72815572 6.03236276 13.4485091 14.52903376 16 24 C16.32767708 27.62023729 16.37196964 31.2337331 16.4140625 34.8671875 C16.43342865 35.90191193 16.4527948 36.93663635 16.4727478 38.00271606 C16.53231842 41.29339467 16.57883905 44.58410868 16.625 47.875 C16.66320048 50.11199405 16.70225341 52.34897372 16.7421875 54.5859375 C16.83800138 60.05716358 16.92311431 65.52847695 17 71 C24.61860516 61.08543155 32.22834377 51.17315453 39.5 41 C44.35814422 34.21436085 49.32751682 27.52108589 54.375 20.875 C55.02919922 20.01003906 55.68339844 19.14507812 56.35742188 18.25390625 C73.84913256 -4.67610388 73.84913256 -4.67610388 88 -7 C99.72275836 -7.99980882 111.4660769 -7.26801402 121.375 -0.1875 C122.60301738 0.85218698 123.81215345 1.91464463 125 3 C125.60328125 3.50144531 126.2065625 4.00289062 126.828125 4.51953125 C133.19076132 10.20440848 137.85616735 18.49751067 139 27 C140.10981975 46.87004213 133.559167 58.41757677 121.4375 74 C120.03004005 75.82849638 118.62381615 77.65794477 117.21875 79.48828125 C116.51621094 80.40303223 115.81367188 81.3177832 115.08984375 82.26025391 C107.15795235 92.65881527 99.38294361 103.20313886 92 114 C93.35118845 116.89856255 94.89698641 119.32343725 96.87109375 121.8359375 C97.43957031 122.56296875 98.00804687 123.29 98.59375 124.0390625 C99.2021875 124.80992187 99.810625 125.58078125 100.4375 126.375 C101.06785156 127.179375 101.69820312 127.98375 102.34765625 128.8125 C104.22839308 131.21101054 106.11365873 133.60589596 108 136 C108.95985497 137.22118163 109.91951237 138.4425186 110.87890625 139.6640625 C112.19106241 141.33425538 113.50339042 143.00431096 114.81640625 144.67382812 C120.32446154 151.67898566 125.81027485 158.70080556 131.25683594 165.75390625 C132.95317826 167.93966947 134.66680279 170.11091393 136.3828125 172.28125 C146.55556992 185.2684345 151.64604833 195.9747543 150.27783203 212.75683594 C148.96518237 223.35492477 143.65159575 230.87832895 136 238 C135.360625 238.59683594 134.72125 239.19367188 134.0625 239.80859375 C124.54002443 247.76382855 113.01153362 249.07269484 101 248 C84.48902535 245.23675251 74.99871874 233.57180576 65.48339844 220.95410156 C62.70854099 217.29874294 59.88291732 213.68274286 57.0625 210.0625 C56.46236084 209.29123779 55.86222168 208.51997559 55.24389648 207.7253418 C51.24175824 202.58484647 47.22248054 197.45813495 43.19262695 192.33935547 C37.66797996 185.31644768 32.18177371 178.26318411 26.71289062 171.19677734 C25.4926306 169.63179734 24.26088644 168.07574324 23.02148438 166.52587891 C22.38017578 165.71940918 21.73886719 164.91293945 21.078125 164.08203125 C20.4893457 163.34831299 19.90056641 162.61459473 19.29394531 161.85864258 C18 160 18 160 18 158 C17.34 158 16.68 158 16 158 C16.01110306 158.687453 16.02220612 159.37490601 16.03364563 160.08319092 C16.13450613 166.61329395 16.21029476 173.14317455 16.25906086 179.67388535 C16.2849777 183.03029306 16.32280115 186.3855615 16.37719727 189.74169922 C16.43836076 193.61442773 16.46632847 197.48624888 16.48828125 201.359375 C16.52699089 203.13667999 16.52699089 203.13667999 16.56648254 204.94989014 C16.57068776 217.64695326 11.93008653 227.84967767 3.15625 236.90234375 C-1.44494318 241.22052704 -6.09228932 243.85075973 -12 246 C-13.60875 246.61875 -13.60875 246.61875 -15.25 247.25 C-27.71879148 249.7437583 -39.79552538 247.76090828 -50.4375 240.6875 C-59.50749251 233.76025653 -64.8701543 224.97557153 -68 214 C-68.18788774 211.35831607 -68.28313583 208.8233705 -68.27415466 206.18405151 C-68.27939134 205.41560036 -68.28462802 204.6471492 -68.29002339 203.85541165 C-68.30497983 201.29011052 -68.30572758 198.72500964 -68.30639648 196.15966797 C-68.31402106 194.31620448 -68.32244907 192.47274417 -68.33161926 190.62928772 C-68.35354555 185.62692455 -68.36236101 180.6246225 -68.36744571 175.6222167 C-68.37109241 172.49333697 -68.37733421 169.36447317 -68.3844471 166.23559952 C-68.40893804 155.30940297 -68.42199209 144.38325384 -68.42553711 133.45703125 C-68.42916896 123.29028282 -68.4590402 113.1238369 -68.50094169 102.95718086 C-68.53570022 94.21553294 -68.55108654 85.47398497 -68.55178314 76.73226845 C-68.55257425 71.51718522 -68.56123614 66.30241005 -68.58978081 61.08739853 C-68.61605579 56.17722631 -68.61811417 51.26761545 -68.60212517 46.35740471 C-68.60031799 44.56281365 -68.60693484 42.76818961 -68.62294388 40.97366905 C-68.74791058 26.04641531 -66.01643015 14.57414748 -55.484375 3.390625 C-39.48034212 -11.68113412 -17.90993213 -10.99518344 0 0 Z " fill="#FEFEFE" transform="translate(215,136)"/>
<path d="M0 0 C0.66 0 1.32 0 2 0 C3.375 1.40722656 3.375 1.40722656 5 3.390625 C7.81351822 6.70322166 10.74726272 9.77875468 13.875 12.796875 C14.71417969 13.61027344 15.55335938 14.42367187 16.41796875 15.26171875 C18.16334886 16.94372651 19.9161805 18.61803087 21.67578125 20.28515625 C22.50464844 21.09339844 23.33351562 21.90164062 24.1875 22.734375 C24.94417969 23.45850586 25.70085937 24.18263672 26.48046875 24.92871094 C28 27 28 27 27.92041016 29.00219727 C26.85715203 31.31005966 25.60888107 33.19385748 24.0859375 35.23046875 C23.48910156 36.03419922 22.89226562 36.83792969 22.27734375 37.66601562 C21.64957031 38.49810547 21.02179688 39.33019531 20.375 40.1875 C19.46814453 41.40663086 19.46814453 41.40663086 18.54296875 42.65039062 C16.70765517 45.10986735 14.85744099 47.55719836 13 50 C12.01628418 51.29671631 12.01628418 51.29671631 11.01269531 52.61962891 C10.06668457 53.85398682 10.06668457 53.85398682 9.1015625 55.11328125 C8.53002441 55.86005127 7.95848633 56.60682129 7.36962891 57.3762207 C6.91765137 57.91206787 6.46567383 58.44791504 6 59 C5.67 59 5.34 59 5 59 C4.99635437 58.42307907 4.99270874 57.84615814 4.98895264 57.25175476 C4.94685834 51.19958462 4.87732786 45.14815396 4.79248047 39.09643555 C4.76440651 36.84358142 4.74312508 34.59063127 4.72900391 32.33764648 C4.70738577 29.08267537 4.66063899 25.82884236 4.609375 22.57421875 C4.60814636 21.58105148 4.60691772 20.58788422 4.60565186 19.56462097 C4.45853523 12.40102557 2.80790388 6.57699031 0 0 Z " fill="#0f76dd" transform="translate(226,149)"/>
</svg>
